# xmcd
#
# Track frame offsets:
#	150
#	20512
#	28407
#	48827
#	63590
#	78607
#	87387
#	101897
#	121600
#	132170
#	145542
#	153120
#
# Disc length: 2176 seconds
#
# Revision: 0
# Processed by: cddbd v1.4PL0 Copyright (c) Steve Scherf et al.
# Submitted via: audiograbber 1.81.01
#
DISCID=99087e0c
DTITLE=Gino Del Vescovo - I Grandi Successi Originali cd1
DYEAR=1900
DGENRE=pop
TTITLE0='O Sole mio
TTITLE1='O mare canta
TTITLE2='O paese d'o sole
TTITLE3=Anema e core
TTITLE4=Funiculì funiculà
TTITLE5=Guaglione
TTITLE6=Lazzarella
TTITLE7=Marechiare
TTITLE8=Santa Lucia
TTITLE9=Torna a Surriento
TTITLE10=Voce 'e notte
TTITLE11='E stingule frangese
EXTD=
EXTT0=
EXTT1=
EXTT2=
EXTT3=
EXTT4=
EXTT5=
EXTT6=
EXTT7=
EXTT8=
EXTT9=
EXTT10=
EXTT11=
PLAYORDER=
